<svg width="197" height="79" viewBox="0 0 197 79" fill="none" xmlns="http://www.w3.org/2000/svg">
<path d="M59.9609 44H55.8828C55.7891 44 55.7422 43.9414 55.7422 43.8242L55.8125 19.0918C55.8125 18.998 55.8594 18.9512 55.9531 18.9512H60.3477C60.4414 18.9512 60.5234 18.998 60.5938 19.0918L63.8809 23.8379L67.1504 19.0918C67.2207 18.998 67.3086 18.9512 67.4141 18.9512H71.8262C71.9316 18.9512 71.9844 18.998 71.9844 19.0918L72.0547 43.8242C72.0547 43.9414 72.0078 44 71.9141 44H67.8359C67.7422 44 67.6953 43.9414 67.6953 43.8242L67.6602 25.4551L63.8809 30.9395L60.1367 25.4551L60.1016 43.8242C60.1016 43.9414 60.0547 44 59.9609 44ZM81.1953 44.3516C79.918 44.3516 78.7402 44.0234 77.6621 43.3672C76.5957 42.7109 75.7402 41.8379 75.0957 40.748C74.4629 39.6465 74.1465 38.4395 74.1465 37.127V35.4746C74.1465 35.3457 74.2051 35.2812 74.3223 35.2812H78.3652C78.459 35.2812 78.5059 35.3457 78.5059 35.4746V37.127C78.5059 37.9121 78.7695 38.5918 79.2969 39.166C79.8242 39.7285 80.457 40.0098 81.1953 40.0098C81.9453 40.0098 82.584 39.7227 83.1113 39.1484C83.6387 38.5625 83.9023 37.8887 83.9023 37.127C83.9023 36.248 83.3281 35.4805 82.1797 34.8242C81.9922 34.707 81.7461 34.5664 81.4414 34.4023C81.1484 34.2266 80.7969 34.0273 80.3867 33.8047C79.9766 33.582 79.5781 33.3652 79.1914 33.1543C78.8047 32.9316 78.4297 32.7207 78.0664 32.5215C76.7539 31.748 75.7754 30.7812 75.1309 29.6211C74.498 28.4492 74.1816 27.1367 74.1816 25.6836C74.1816 24.3477 74.5098 23.1406 75.166 22.0625C75.8223 20.9961 76.6777 20.1523 77.7324 19.5312C78.7988 18.8984 79.9531 18.582 81.1953 18.582C82.4727 18.582 83.6445 18.8984 84.7109 19.5312C85.7773 20.1758 86.627 21.0312 87.2598 22.0977C87.9043 23.1641 88.2266 24.3594 88.2266 25.6836V28.6367C88.2266 28.7305 88.1797 28.7773 88.0859 28.7773H84.043C83.9492 28.7773 83.9023 28.7305 83.9023 28.6367L83.8672 25.6836C83.8672 24.8398 83.6035 24.1543 83.0762 23.627C82.5488 23.0996 81.9219 22.8359 81.1953 22.8359C80.457 22.8359 79.8242 23.1172 79.2969 23.6797C78.7695 24.2422 78.5059 24.9102 78.5059 25.6836C78.5059 26.4688 78.6699 27.125 78.998 27.6523C79.3379 28.1797 79.9531 28.6836 80.8438 29.1641C80.9375 29.2109 81.1543 29.3281 81.4941 29.5156C81.834 29.7031 82.209 29.9141 82.6191 30.1484C83.041 30.3711 83.4219 30.5762 83.7617 30.7637C84.1016 30.9395 84.3066 31.0449 84.377 31.0801C85.5723 31.748 86.5156 32.5684 87.207 33.541C87.9102 34.5137 88.2617 35.709 88.2617 37.127C88.2617 38.498 87.9453 39.7285 87.3125 40.8184C86.668 41.9082 85.8125 42.7695 84.7461 43.4023C83.6797 44.0352 82.4961 44.3516 81.1953 44.3516ZM97.3848 44.3516C96.1191 44.3516 94.9473 44.0234 93.8691 43.3672C92.791 42.7109 91.9297 41.832 91.2852 40.7305C90.6523 39.6172 90.3359 38.4043 90.3359 37.0918L90.4062 19.0918C90.4062 18.998 90.4531 18.9512 90.5469 18.9512H94.5898C94.6836 18.9512 94.7305 18.998 94.7305 19.0918V37.0918C94.7305 37.9004 94.9883 38.5918 95.5039 39.166C96.0195 39.7285 96.6465 40.0098 97.3848 40.0098C98.1582 40.0098 98.8027 39.7285 99.3184 39.166C99.834 38.5918 100.092 37.9004 100.092 37.0918V19.0918C100.092 18.998 100.139 18.9512 100.232 18.9512H104.275C104.369 18.9512 104.416 18.998 104.416 19.0918L104.486 37.0918C104.486 38.416 104.17 39.6348 103.537 40.748C102.893 41.8496 102.037 42.7285 100.971 43.3848C99.9043 44.0293 98.709 44.3516 97.3848 44.3516ZM111.535 44H107.457C107.363 44 107.316 43.9414 107.316 43.8242L107.387 19.0918C107.387 18.998 107.434 18.9512 107.527 18.9512H111.922C112.016 18.9512 112.098 18.998 112.168 19.0918L115.455 23.8379L118.725 19.0918C118.795 18.998 118.883 18.9512 118.988 18.9512H123.4C123.506 18.9512 123.559 18.998 123.559 19.0918L123.629 43.8242C123.629 43.9414 123.582 44 123.488 44H119.41C119.316 44 119.27 43.9414 119.27 43.8242L119.234 25.4551L115.455 30.9395L111.711 25.4551L111.676 43.8242C111.676 43.9414 111.629 44 111.535 44ZM130.871 44H126.828C126.711 44 126.652 43.9414 126.652 43.8242L126.723 19.0918C126.723 18.998 126.77 18.9512 126.863 18.9512H133.789C135.992 18.9512 137.732 19.625 139.01 20.9727C140.299 22.3086 140.943 24.1309 140.943 26.4395C140.943 28.127 140.609 29.5977 139.941 30.8516C139.262 32.0938 138.383 33.0547 137.305 33.7344C136.227 34.4141 135.055 34.7539 133.789 34.7539H131.047V43.8242C131.047 43.9414 130.988 44 130.871 44ZM133.789 23.2227L131.047 23.2578V30.3945H133.789C134.551 30.3945 135.213 30.0312 135.775 29.3047C136.338 28.5664 136.619 27.6113 136.619 26.4395C136.619 25.502 136.367 24.7344 135.863 24.1367C135.359 23.5273 134.668 23.2227 133.789 23.2227Z" fill="#094067"/>
<path d="M33.1934 37H28.668C28.6315 37 28.6133 36.9772 28.6133 36.9316L28.627 27.3135C28.627 27.277 28.6452 27.2588 28.6816 27.2588H33.1797C33.2161 27.2588 33.2344 27.2816 33.2344 27.3271V28.8926C33.2344 28.929 33.2161 28.9473 33.1797 28.9473H30.3086V31.1348H33.1797C33.2161 31.1348 33.2344 31.153 33.2344 31.1895L33.248 32.7754C33.248 32.8118 33.2298 32.8301 33.1934 32.8301H30.3086V35.2773H33.1934C33.2298 35.2773 33.248 35.3001 33.248 35.3457V36.9453C33.248 36.9818 33.2298 37 33.1934 37ZM36.8711 37.1367C36.3743 37.1367 35.9163 37.0091 35.4971 36.7539C35.0824 36.4987 34.7497 36.1592 34.499 35.7354C34.2529 35.307 34.1299 34.8376 34.1299 34.3271V33.6846C34.1299 33.6344 34.1527 33.6094 34.1982 33.6094H35.7705C35.807 33.6094 35.8252 33.6344 35.8252 33.6846V34.3271C35.8252 34.6325 35.9277 34.8968 36.1328 35.1201C36.3379 35.3389 36.584 35.4482 36.8711 35.4482C37.1628 35.4482 37.4111 35.3366 37.6162 35.1133C37.8213 34.8854 37.9238 34.6234 37.9238 34.3271C37.9238 33.9854 37.7005 33.6868 37.2539 33.4316C37.181 33.3861 37.0853 33.3314 36.9668 33.2676C36.8529 33.1992 36.7161 33.1217 36.5566 33.0352C36.3971 32.9486 36.2422 32.8643 36.0918 32.7822C35.9414 32.6956 35.7956 32.6136 35.6543 32.5361C35.1439 32.2354 34.7633 31.8594 34.5127 31.4082C34.2666 30.9525 34.1436 30.4421 34.1436 29.877C34.1436 29.3574 34.2712 28.888 34.5264 28.4688C34.7816 28.054 35.1143 27.7259 35.5244 27.4844C35.9391 27.2383 36.388 27.1152 36.8711 27.1152C37.3678 27.1152 37.8236 27.2383 38.2383 27.4844C38.653 27.735 38.9834 28.0677 39.2295 28.4824C39.4801 28.8971 39.6055 29.362 39.6055 29.877V31.0254C39.6055 31.0618 39.5872 31.0801 39.5508 31.0801H37.9785C37.9421 31.0801 37.9238 31.0618 37.9238 31.0254L37.9102 29.877C37.9102 29.5488 37.8076 29.2822 37.6025 29.0771C37.3975 28.8721 37.1536 28.7695 36.8711 28.7695C36.584 28.7695 36.3379 28.8789 36.1328 29.0977C35.9277 29.3164 35.8252 29.5762 35.8252 29.877C35.8252 30.1823 35.889 30.4375 36.0166 30.6426C36.1488 30.8477 36.388 31.0436 36.7344 31.2305C36.7708 31.2487 36.8551 31.2943 36.9873 31.3672C37.1195 31.4401 37.2653 31.5221 37.4248 31.6133C37.5889 31.6999 37.737 31.7796 37.8691 31.8525C38.0013 31.9209 38.0811 31.9619 38.1084 31.9756C38.5732 32.2354 38.9401 32.5544 39.209 32.9326C39.4824 33.3109 39.6191 33.7757 39.6191 34.3271C39.6191 34.8604 39.4961 35.3389 39.25 35.7627C38.9993 36.1865 38.6667 36.5215 38.252 36.7676C37.8372 37.0137 37.377 37.1367 36.8711 37.1367ZM43.29 37H41.7109C41.6699 37 41.6494 36.9772 41.6494 36.9316V28.9473H39.8311C39.7855 28.9473 39.7627 28.9245 39.7627 28.8789L39.7764 27.3135C39.7764 27.277 39.7946 27.2588 39.8311 27.2588H45.1494C45.1995 27.2588 45.2246 27.277 45.2246 27.3135V28.8789C45.2246 28.9245 45.2064 28.9473 45.1699 28.9473H43.3311L43.3447 36.9316C43.3447 36.9772 43.3265 37 43.29 37ZM46.291 37H44.7051C44.6686 37 44.6504 36.9818 44.6504 36.9453V35.3594C44.6504 35.3229 44.6686 35.3047 44.7051 35.3047H46.291C46.3275 35.3047 46.3457 35.3229 46.3457 35.3594V36.9453C46.3457 36.9818 46.3275 37 46.291 37Z" fill="#094067"/>
<path d="M152.87 37H147.647C147.602 37 147.579 36.9772 147.579 36.9316V35.3457C147.579 35.3275 147.588 35.3092 147.606 35.291L151.065 30.5469C151.129 30.4603 151.182 30.3509 151.223 30.2188C151.268 30.082 151.291 29.9635 151.291 29.8633C151.291 29.5898 151.193 29.3392 150.997 29.1113C150.801 28.8835 150.553 28.7695 150.252 28.7695C149.965 28.7695 149.721 28.8789 149.521 29.0977C149.32 29.3164 149.22 29.5944 149.22 29.9316V30.6152C149.22 30.6608 149.197 30.6836 149.151 30.6836H147.579C147.543 30.6836 147.524 30.6608 147.524 30.6152V29.9316C147.524 29.4076 147.654 28.9313 147.914 28.5029C148.169 28.0745 148.504 27.735 148.919 27.4844C149.334 27.2292 149.778 27.1016 150.252 27.1016C150.753 27.1016 151.211 27.2292 151.626 27.4844C152.036 27.7441 152.364 28.0837 152.61 28.5029C152.861 28.9222 152.986 29.3757 152.986 29.8633C152.986 30.1686 152.932 30.4808 152.822 30.7998C152.717 31.1143 152.572 31.3945 152.385 31.6406L149.726 35.291H152.87C152.911 35.291 152.932 35.3092 152.932 35.3457V36.9316C152.932 36.9772 152.911 37 152.87 37ZM156.869 37.1367C156.277 37.1367 155.75 37.0091 155.29 36.7539C154.834 36.4987 154.477 36.1592 154.217 35.7354C153.962 35.307 153.834 34.8376 153.834 34.3271L153.848 29.8906C153.848 29.3711 153.978 28.904 154.237 28.4893C154.493 28.07 154.848 27.735 155.304 27.4844C155.759 27.2292 156.281 27.1016 156.869 27.1016C157.471 27.1016 157.995 27.2269 158.441 27.4775C158.888 27.7282 159.239 28.0654 159.494 28.4893C159.754 28.9085 159.884 29.3757 159.884 29.8906L159.897 34.3271C159.897 34.833 159.77 35.3001 159.515 35.7285C159.255 36.1569 158.897 36.4987 158.441 36.7539C157.99 37.0091 157.466 37.1367 156.869 37.1367ZM158.202 34.3271L158.188 29.8906C158.188 29.5625 158.065 29.2959 157.819 29.0908C157.578 28.8857 157.261 28.7832 156.869 28.7832C156.468 28.7832 156.147 28.8857 155.905 29.0908C155.664 29.2959 155.543 29.5625 155.543 29.8906V34.3271C155.543 34.6735 155.664 34.9469 155.905 35.1475C156.147 35.348 156.468 35.4482 156.869 35.4482C157.261 35.4482 157.58 35.348 157.826 35.1475C158.077 34.9469 158.202 34.6735 158.202 34.3271ZM165.981 37H160.759C160.713 37 160.69 36.9772 160.69 36.9316V35.3457C160.69 35.3275 160.7 35.3092 160.718 35.291L164.177 30.5469C164.241 30.4603 164.293 30.3509 164.334 30.2188C164.38 30.082 164.402 29.9635 164.402 29.8633C164.402 29.5898 164.304 29.3392 164.108 29.1113C163.912 28.8835 163.664 28.7695 163.363 28.7695C163.076 28.7695 162.832 28.8789 162.632 29.0977C162.431 29.3164 162.331 29.5944 162.331 29.9316V30.6152C162.331 30.6608 162.308 30.6836 162.263 30.6836H160.69C160.654 30.6836 160.636 30.6608 160.636 30.6152V29.9316C160.636 29.4076 160.766 28.9313 161.025 28.5029C161.281 28.0745 161.616 27.735 162.03 27.4844C162.445 27.2292 162.889 27.1016 163.363 27.1016C163.865 27.1016 164.323 27.2292 164.737 27.4844C165.147 27.7441 165.476 28.0837 165.722 28.5029C165.972 28.9222 166.098 29.3757 166.098 29.8633C166.098 30.1686 166.043 30.4808 165.934 30.7998C165.829 31.1143 165.683 31.3945 165.496 31.6406L162.837 35.291H165.981C166.022 35.291 166.043 35.3092 166.043 35.3457V36.9316C166.043 36.9772 166.022 37 165.981 37ZM172.134 37H166.911C166.866 37 166.843 36.9772 166.843 36.9316V35.3457C166.843 35.3275 166.852 35.3092 166.87 35.291L170.329 30.5469C170.393 30.4603 170.445 30.3509 170.486 30.2188C170.532 30.082 170.555 29.9635 170.555 29.8633C170.555 29.5898 170.457 29.3392 170.261 29.1113C170.065 28.8835 169.816 28.7695 169.516 28.7695C169.229 28.7695 168.985 28.8789 168.784 29.0977C168.584 29.3164 168.483 29.5944 168.483 29.9316V30.6152C168.483 30.6608 168.461 30.6836 168.415 30.6836H166.843C166.806 30.6836 166.788 30.6608 166.788 30.6152V29.9316C166.788 29.4076 166.918 28.9313 167.178 28.5029C167.433 28.0745 167.768 27.735 168.183 27.4844C168.597 27.2292 169.042 27.1016 169.516 27.1016C170.017 27.1016 170.475 27.2292 170.89 27.4844C171.3 27.7441 171.628 28.0837 171.874 28.5029C172.125 28.9222 172.25 29.3757 172.25 29.8633C172.25 30.1686 172.195 30.4808 172.086 30.7998C171.981 31.1143 171.835 31.3945 171.648 31.6406L168.989 35.291H172.134C172.175 35.291 172.195 35.3092 172.195 35.3457V36.9316C172.195 36.9772 172.175 37 172.134 37Z" fill="#094067"/>
<path d="M1 53L196 53" stroke="#094067" stroke-linecap="round"/>
<path d="M27.8809 72H26.5215C26.4902 72 26.4746 71.9805 26.4746 71.9414L26.498 63.6973C26.498 63.666 26.5137 63.6504 26.5449 63.6504H28.0098C28.041 63.6504 28.0684 63.666 28.0918 63.6973L29.1875 65.2793L30.2773 63.6973C30.3008 63.666 30.3301 63.6504 30.3652 63.6504H31.8359C31.8711 63.6504 31.8887 63.666 31.8887 63.6973L31.9121 71.9414C31.9121 71.9805 31.8965 72 31.8652 72H30.5059C30.4746 72 30.459 71.9805 30.459 71.9414L30.4473 65.8184L29.1875 67.6465L27.9395 65.8184L27.9277 71.9414C27.9277 71.9805 27.9121 72 27.8809 72ZM35.4219 72H34.0449C34.0176 72 34.0039 71.9844 34.0039 71.9531L34.0156 68.543L32.4102 63.6973C32.4023 63.666 32.4141 63.6504 32.4453 63.6504H33.7812C33.8203 63.6504 33.8438 63.666 33.8516 63.6973L34.7363 66.9258L35.6387 63.6973C35.6465 63.666 35.666 63.6504 35.6973 63.6504H37.0449C37.0762 63.6504 37.0879 63.666 37.0801 63.6973L35.457 68.4961L35.4688 71.9531C35.4688 71.9844 35.4531 72 35.4219 72ZM42.8926 72.1172C42.4668 72.1172 42.0742 72.0078 41.7148 71.7891C41.3594 71.5703 41.0742 71.2793 40.8594 70.916C40.6484 70.5488 40.543 70.1465 40.543 69.709V69.1582C40.543 69.1152 40.5625 69.0938 40.6016 69.0938H41.9492C41.9805 69.0938 41.9961 69.1152 41.9961 69.1582V69.709C41.9961 69.9707 42.084 70.1973 42.2598 70.3887C42.4355 70.5762 42.6465 70.6699 42.8926 70.6699C43.1426 70.6699 43.3555 70.5742 43.5312 70.3828C43.707 70.1875 43.7949 69.9629 43.7949 69.709C43.7949 69.416 43.6035 69.1602 43.2207 68.9414C43.1582 68.9023 43.0762 68.8555 42.9746 68.8008C42.877 68.7422 42.7598 68.6758 42.623 68.6016C42.4863 68.5273 42.3535 68.4551 42.2246 68.3848C42.0957 68.3105 41.9707 68.2402 41.8496 68.1738C41.4121 67.916 41.0859 67.5938 40.8711 67.207C40.6602 66.8164 40.5547 66.3789 40.5547 65.8945C40.5547 65.4492 40.6641 65.0469 40.8828 64.6875C41.1016 64.332 41.3867 64.0508 41.7383 63.8438C42.0938 63.6328 42.4785 63.5273 42.8926 63.5273C43.3184 63.5273 43.709 63.6328 44.0645 63.8438C44.4199 64.0586 44.7031 64.3438 44.9141 64.6992C45.1289 65.0547 45.2363 65.4531 45.2363 65.8945V66.8789C45.2363 66.9102 45.2207 66.9258 45.1895 66.9258H43.8418C43.8105 66.9258 43.7949 66.9102 43.7949 66.8789L43.7832 65.8945C43.7832 65.6133 43.6953 65.3848 43.5195 65.209C43.3438 65.0332 43.1348 64.9453 42.8926 64.9453C42.6465 64.9453 42.4355 65.0391 42.2598 65.2266C42.084 65.4141 41.9961 65.6367 41.9961 65.8945C41.9961 66.1562 42.0508 66.375 42.1602 66.5508C42.2734 66.7266 42.4785 66.8945 42.7754 67.0547C42.8066 67.0703 42.8789 67.1094 42.9922 67.1719C43.1055 67.2344 43.2305 67.3047 43.3672 67.3828C43.5078 67.457 43.6348 67.5254 43.748 67.5879C43.8613 67.6465 43.9297 67.6816 43.9531 67.6934C44.3516 67.916 44.666 68.1895 44.8965 68.5137C45.1309 68.8379 45.248 69.2363 45.248 69.709C45.248 70.166 45.1426 70.5762 44.9316 70.9395C44.7168 71.3027 44.4316 71.5898 44.0762 71.8008C43.7207 72.0117 43.3262 72.1172 42.8926 72.1172ZM48.6406 72H47.2871C47.252 72 47.2344 71.9805 47.2344 71.9414V65.0977H45.6758C45.6367 65.0977 45.6172 65.0781 45.6172 65.0391L45.6289 63.6973C45.6289 63.666 45.6445 63.6504 45.6758 63.6504H50.2344C50.2773 63.6504 50.2988 63.666 50.2988 63.6973V65.0391C50.2988 65.0781 50.2832 65.0977 50.252 65.0977H48.6758L48.6875 71.9414C48.6875 71.9805 48.6719 72 48.6406 72ZM52.3027 72H50.9434C50.9043 72 50.8848 71.9805 50.8848 71.9414L50.8965 63.6973C50.8965 63.666 50.9121 63.6504 50.9434 63.6504H52.291C52.3223 63.6504 52.3379 63.666 52.3379 63.6973L52.3496 71.9414C52.3496 71.9805 52.334 72 52.3027 72ZM57.3301 72H53.4512C53.4199 72 53.4043 71.9805 53.4043 71.9414L53.416 63.709C53.416 63.6699 53.4355 63.6504 53.4746 63.6504H54.8105C54.8496 63.6504 54.8691 63.6699 54.8691 63.709L54.8574 70.5234H57.3301C57.3691 70.5234 57.3887 70.543 57.3887 70.582V71.9414C57.3887 71.9805 57.3691 72 57.3301 72ZM62.0996 72H58.2207C58.1895 72 58.1738 71.9805 58.1738 71.9414L58.1855 63.709C58.1855 63.6699 58.2051 63.6504 58.2441 63.6504H59.5801C59.6191 63.6504 59.6387 63.6699 59.6387 63.709L59.627 70.5234H62.0996C62.1387 70.5234 62.1582 70.543 62.1582 70.582V71.9414C62.1582 71.9805 62.1387 72 62.0996 72ZM68.2695 72.1172C67.8477 72.1172 67.457 72.0078 67.0977 71.7891C66.7383 71.5703 66.4512 71.2773 66.2363 70.9102C66.0254 70.5391 65.9199 70.1348 65.9199 69.6973L65.9434 63.6973C65.9434 63.666 65.959 63.6504 65.9902 63.6504H67.3379C67.3691 63.6504 67.3848 63.666 67.3848 63.6973V69.6973C67.3848 69.9668 67.4707 70.1973 67.6426 70.3887C67.8145 70.5762 68.0234 70.6699 68.2695 70.6699C68.5273 70.6699 68.7422 70.5762 68.9141 70.3887C69.0859 70.1973 69.1719 69.9668 69.1719 69.6973V63.6973C69.1719 63.666 69.1875 63.6504 69.2188 63.6504H70.5664C70.5977 63.6504 70.6133 63.666 70.6133 63.6973L70.6367 69.6973C70.6367 70.1387 70.5312 70.5449 70.3203 70.916C70.1055 71.2832 69.8203 71.5762 69.4648 71.7949C69.1094 72.0098 68.7109 72.1172 68.2695 72.1172ZM72.8867 72H71.6855C71.623 72 71.5918 71.9727 71.5918 71.918L71.5801 63.7441C71.5801 63.6816 71.6113 63.6504 71.6738 63.6504H72.7578L74.7852 68.3789L74.7266 63.7441C74.7266 63.6816 74.7617 63.6504 74.832 63.6504H76.0215C76.0684 63.6504 76.0918 63.6816 76.0918 63.7441L76.1035 71.9297C76.1035 71.9766 76.084 72 76.0449 72H74.9902L72.9102 67.582L72.998 71.9062C72.998 71.9688 72.9609 72 72.8867 72ZM79.707 72H78.3535C78.3184 72 78.3008 71.9805 78.3008 71.9414V65.0977H76.7422C76.7031 65.0977 76.6836 65.0781 76.6836 65.0391L76.6953 63.6973C76.6953 63.666 76.7109 63.6504 76.7422 63.6504H81.3008C81.3438 63.6504 81.3652 63.666 81.3652 63.6973V65.0391C81.3652 65.0781 81.3496 65.0977 81.3184 65.0977H79.7422L79.7539 71.9414C79.7539 71.9805 79.7383 72 79.707 72ZM83.3691 72H82.0098C81.9707 72 81.9512 71.9805 81.9512 71.9414L81.9629 63.6973C81.9629 63.666 81.9785 63.6504 82.0098 63.6504H83.3574C83.3887 63.6504 83.4043 63.666 83.4043 63.6973L83.416 71.9414C83.416 71.9805 83.4004 72 83.3691 72ZM87.0312 72H85.6777C85.6426 72 85.625 71.9805 85.625 71.9414V65.0977H84.0664C84.0273 65.0977 84.0078 65.0781 84.0078 65.0391L84.0195 63.6973C84.0195 63.666 84.0352 63.6504 84.0664 63.6504H88.625C88.668 63.6504 88.6895 63.666 88.6895 63.6973V65.0391C88.6895 65.0781 88.6738 65.0977 88.6426 65.0977H87.0664L87.0781 71.9414C87.0781 71.9805 87.0625 72 87.0312 72ZM93.2012 72H89.3223C89.291 72 89.2754 71.9805 89.2754 71.9414L89.2871 63.709C89.2871 63.6699 89.3066 63.6504 89.3457 63.6504H90.6816C90.7207 63.6504 90.7402 63.6699 90.7402 63.709L90.7285 70.5234H93.2012C93.2402 70.5234 93.2598 70.543 93.2598 70.582V71.9414C93.2598 71.9805 93.2402 72 93.2012 72ZM97.9707 72H94.0918C94.0605 72 94.0449 71.9805 94.0449 71.9414L94.0566 63.6973C94.0566 63.666 94.0723 63.6504 94.1035 63.6504H97.959C97.9902 63.6504 98.0059 63.6699 98.0059 63.709V65.0508C98.0059 65.082 97.9902 65.0977 97.959 65.0977H95.498V66.9727H97.959C97.9902 66.9727 98.0059 66.9883 98.0059 67.0195L98.0176 68.3789C98.0176 68.4102 98.002 68.4258 97.9707 68.4258H95.498V70.5234H97.9707C98.002 70.5234 98.0176 70.543 98.0176 70.582V71.9531C98.0176 71.9844 98.002 72 97.9707 72ZM101.293 71.9883L99.1426 72C99.1035 72 99.084 71.9805 99.084 71.9414L99.1074 63.6973C99.1074 63.666 99.123 63.6504 99.1543 63.6504L101.398 63.6387C101.844 63.627 102.246 63.7285 102.605 63.9434C102.969 64.1582 103.258 64.4492 103.473 64.8164C103.691 65.1797 103.801 65.582 103.801 66.0234V69.4688C103.801 69.9297 103.689 70.3516 103.467 70.7344C103.24 71.1133 102.939 71.416 102.564 71.6426C102.189 71.8652 101.766 71.9805 101.293 71.9883ZM101.398 65.0742L100.561 65.0859L100.549 70.5234H101.293C101.59 70.5234 101.84 70.4199 102.043 70.2129C102.246 70.0059 102.348 69.7578 102.348 69.4688V66.0117C102.348 65.7578 102.254 65.5371 102.066 65.3496C101.879 65.1582 101.656 65.0664 101.398 65.0742ZM109.268 72H107.908C107.877 72 107.861 71.9805 107.861 71.9414L107.885 63.6973C107.885 63.666 107.9 63.6504 107.932 63.6504H109.396C109.428 63.6504 109.455 63.666 109.479 63.6973L110.574 65.2793L111.664 63.6973C111.688 63.666 111.717 63.6504 111.752 63.6504H113.223C113.258 63.6504 113.275 63.666 113.275 63.6973L113.299 71.9414C113.299 71.9805 113.283 72 113.252 72H111.893C111.861 72 111.846 71.9805 111.846 71.9414L111.834 65.8184L110.574 67.6465L109.326 65.8184L109.314 71.9414C109.314 71.9805 109.299 72 109.268 72ZM116.516 72.1172C116.094 72.1172 115.703 72.0078 115.344 71.7891C114.984 71.5703 114.697 71.2773 114.482 70.9102C114.271 70.5391 114.166 70.1348 114.166 69.6973L114.189 63.6973C114.189 63.666 114.205 63.6504 114.236 63.6504H115.584C115.615 63.6504 115.631 63.666 115.631 63.6973V69.6973C115.631 69.9668 115.717 70.1973 115.889 70.3887C116.061 70.5762 116.27 70.6699 116.516 70.6699C116.773 70.6699 116.988 70.5762 117.16 70.3887C117.332 70.1973 117.418 69.9668 117.418 69.6973V63.6973C117.418 63.666 117.434 63.6504 117.465 63.6504H118.812C118.844 63.6504 118.859 63.666 118.859 63.6973L118.883 69.6973C118.883 70.1387 118.777 70.5449 118.566 70.916C118.352 71.2832 118.066 71.5762 117.711 71.7949C117.355 72.0098 116.957 72.1172 116.516 72.1172ZM121.865 72.1172C121.439 72.1172 121.047 72.0078 120.688 71.7891C120.332 71.5703 120.047 71.2793 119.832 70.916C119.621 70.5488 119.516 70.1465 119.516 69.709V69.1582C119.516 69.1152 119.535 69.0938 119.574 69.0938H120.922C120.953 69.0938 120.969 69.1152 120.969 69.1582V69.709C120.969 69.9707 121.057 70.1973 121.232 70.3887C121.408 70.5762 121.619 70.6699 121.865 70.6699C122.115 70.6699 122.328 70.5742 122.504 70.3828C122.68 70.1875 122.768 69.9629 122.768 69.709C122.768 69.416 122.576 69.1602 122.193 68.9414C122.131 68.9023 122.049 68.8555 121.947 68.8008C121.85 68.7422 121.732 68.6758 121.596 68.6016C121.459 68.5273 121.326 68.4551 121.197 68.3848C121.068 68.3105 120.943 68.2402 120.822 68.1738C120.385 67.916 120.059 67.5938 119.844 67.207C119.633 66.8164 119.527 66.3789 119.527 65.8945C119.527 65.4492 119.637 65.0469 119.855 64.6875C120.074 64.332 120.359 64.0508 120.711 63.8438C121.066 63.6328 121.451 63.5273 121.865 63.5273C122.291 63.5273 122.682 63.6328 123.037 63.8438C123.393 64.0586 123.676 64.3438 123.887 64.6992C124.102 65.0547 124.209 65.4531 124.209 65.8945V66.8789C124.209 66.9102 124.193 66.9258 124.162 66.9258H122.814C122.783 66.9258 122.768 66.9102 122.768 66.8789L122.756 65.8945C122.756 65.6133 122.668 65.3848 122.492 65.209C122.316 65.0332 122.107 64.9453 121.865 64.9453C121.619 64.9453 121.408 65.0391 121.232 65.2266C121.057 65.4141 120.969 65.6367 120.969 65.8945C120.969 66.1562 121.023 66.375 121.133 66.5508C121.246 66.7266 121.451 66.8945 121.748 67.0547C121.779 67.0703 121.852 67.1094 121.965 67.1719C122.078 67.2344 122.203 67.3047 122.34 67.3828C122.48 67.457 122.607 67.5254 122.721 67.5879C122.834 67.6465 122.902 67.6816 122.926 67.6934C123.324 67.916 123.639 68.1895 123.869 68.5137C124.104 68.8379 124.221 69.2363 124.221 69.709C124.221 70.166 124.115 70.5762 123.904 70.9395C123.689 71.3027 123.404 71.5898 123.049 71.8008C122.693 72.0117 122.299 72.1172 121.865 72.1172ZM126.471 72H125.111C125.072 72 125.053 71.9805 125.053 71.9414L125.064 63.6973C125.064 63.666 125.08 63.6504 125.111 63.6504H126.459C126.49 63.6504 126.506 63.666 126.506 63.6973L126.518 71.9414C126.518 71.9805 126.502 72 126.471 72ZM129.781 72.1172C129.348 72.1172 128.951 72.0078 128.592 71.7891C128.236 71.5703 127.953 71.2773 127.742 70.9102C127.535 70.5391 127.432 70.127 127.432 69.6738L127.443 65.9297C127.443 65.4844 127.545 65.082 127.748 64.7227C127.951 64.3594 128.23 64.0684 128.586 63.8496C128.945 63.627 129.344 63.5156 129.781 63.5156C130.227 63.5156 130.623 63.623 130.971 63.8379C131.322 64.0527 131.602 64.3438 131.809 64.7109C132.02 65.0742 132.125 65.4805 132.125 65.9297V66.4805C132.125 66.5117 132.109 66.5273 132.078 66.5273H130.73C130.699 66.5273 130.684 66.5117 130.684 66.4805V65.9297C130.684 65.6641 130.598 65.4355 130.426 65.2441C130.254 65.0527 130.039 64.957 129.781 64.957C129.496 64.957 129.277 65.0547 129.125 65.25C128.973 65.4453 128.896 65.6719 128.896 65.9297V69.6738C128.896 69.9668 128.982 70.207 129.154 70.3945C129.326 70.5781 129.535 70.6699 129.781 70.6699C130.039 70.6699 130.254 70.5684 130.426 70.3652C130.598 70.1582 130.684 69.9277 130.684 69.6738V69.1172C130.684 69.0859 130.699 69.0703 130.73 69.0703H132.09C132.121 69.0703 132.137 69.0859 132.137 69.1172V69.6738C132.137 70.123 132.031 70.5332 131.82 70.9043C131.605 71.2715 131.322 71.5664 130.971 71.7891C130.619 72.0078 130.223 72.1172 129.781 72.1172ZM137.533 72H136.186C136.146 72 136.127 71.9805 136.127 71.9414L136.15 63.6973C136.15 63.666 136.166 63.6504 136.197 63.6504H138.506C139.24 63.6504 139.82 63.875 140.246 64.3242C140.676 64.7695 140.891 65.377 140.891 66.1465C140.891 66.709 140.779 67.1992 140.557 67.6172C140.33 68.0312 140.037 68.3516 139.678 68.5781C139.318 68.8047 138.928 68.918 138.506 68.918H137.592V71.9414C137.592 71.9805 137.572 72 137.533 72ZM138.506 65.0742L137.592 65.0859V67.4648H138.506C138.76 67.4648 138.98 67.3438 139.168 67.1016C139.355 66.8555 139.449 66.5371 139.449 66.1465C139.449 65.834 139.365 65.5781 139.197 65.3789C139.029 65.1758 138.799 65.0742 138.506 65.0742ZM143.111 72H141.752C141.721 72 141.705 71.9805 141.705 71.9414L141.729 63.6973C141.729 63.666 141.744 63.6504 141.775 63.6504H144.201C144.635 63.6504 145.033 63.7559 145.396 63.9668C145.76 64.1777 146.049 64.4609 146.264 64.8164C146.482 65.1719 146.592 65.5742 146.592 66.0234C146.592 66.3164 146.547 66.582 146.457 66.8203C146.367 67.0586 146.262 67.2598 146.141 67.4238C146.023 67.5879 145.916 67.709 145.818 67.7871C146.252 68.2676 146.469 68.832 146.469 69.4805L146.48 71.9414C146.48 71.9805 146.461 72 146.422 72H145.062C145.031 72 145.016 71.9883 145.016 71.9648V69.4805C145.016 69.1914 144.914 68.9414 144.711 68.7305C144.508 68.5195 144.258 68.4141 143.961 68.4141H143.17L143.158 71.9414C143.158 71.9805 143.143 72 143.111 72ZM144.201 65.0859H143.17V66.9727H144.201C144.447 66.9727 144.666 66.8809 144.857 66.6973C145.053 66.5137 145.15 66.2891 145.15 66.0234C145.15 65.7695 145.057 65.5508 144.869 65.3672C144.682 65.1797 144.459 65.0859 144.201 65.0859ZM149.715 72.1172C149.289 72.1172 148.896 72.0078 148.537 71.7891C148.182 71.5703 147.895 71.2793 147.676 70.916C147.461 70.5488 147.354 70.1465 147.354 69.709L147.365 65.9062C147.365 65.4609 147.473 65.0605 147.688 64.7051C147.898 64.3457 148.184 64.0586 148.543 63.8438C148.902 63.625 149.293 63.5156 149.715 63.5156C150.152 63.5156 150.545 63.623 150.893 63.8379C151.244 64.0527 151.525 64.3418 151.736 64.7051C151.951 65.0645 152.059 65.4648 152.059 65.9062L152.07 69.709C152.07 70.1465 151.965 70.5469 151.754 70.9102C151.539 71.2773 151.254 71.5703 150.898 71.7891C150.543 72.0078 150.148 72.1172 149.715 72.1172ZM149.715 70.6699C149.957 70.6699 150.168 70.5723 150.348 70.377C150.527 70.1777 150.617 69.9551 150.617 69.709L150.605 65.9062C150.605 65.6406 150.521 65.416 150.354 65.2324C150.186 65.0488 149.973 64.957 149.715 64.957C149.469 64.957 149.258 65.0469 149.082 65.2266C148.906 65.4062 148.818 65.6328 148.818 65.9062V69.709C148.818 69.9707 148.906 70.1973 149.082 70.3887C149.258 70.5762 149.469 70.6699 149.715 70.6699ZM154.947 72.1172C154.506 72.1172 154.105 72.0117 153.746 71.8008C153.391 71.5898 153.109 71.2988 152.902 70.9277C152.699 70.5527 152.598 70.1348 152.598 69.6738V69.1172C152.598 69.0859 152.613 69.0703 152.645 69.0703H154.004C154.035 69.0703 154.051 69.0918 154.051 69.1348V69.6738C154.051 69.9668 154.135 70.207 154.303 70.3945C154.471 70.5781 154.686 70.6699 154.947 70.6699C155.189 70.6699 155.398 70.5703 155.574 70.3711C155.75 70.168 155.838 69.9355 155.838 69.6738V63.709C155.838 63.6777 155.854 63.6621 155.885 63.6621H157.232C157.264 63.6621 157.279 63.6816 157.279 63.7207L157.291 69.6738C157.291 70.1113 157.186 70.5156 156.975 70.8867C156.76 71.2617 156.477 71.5605 156.125 71.7832C155.773 72.0059 155.381 72.1172 154.947 72.1172ZM162.119 72H158.24C158.209 72 158.193 71.9805 158.193 71.9414L158.205 63.6973C158.205 63.666 158.221 63.6504 158.252 63.6504H162.107C162.139 63.6504 162.154 63.6699 162.154 63.709V65.0508C162.154 65.082 162.139 65.0977 162.107 65.0977H159.646V66.9727H162.107C162.139 66.9727 162.154 66.9883 162.154 67.0195L162.166 68.3789C162.166 68.4102 162.15 68.4258 162.119 68.4258H159.646V70.5234H162.119C162.15 70.5234 162.166 70.543 162.166 70.582V71.9531C162.166 71.9844 162.15 72 162.119 72ZM165.441 72.1172C165.008 72.1172 164.611 72.0078 164.252 71.7891C163.896 71.5703 163.613 71.2773 163.402 70.9102C163.195 70.5391 163.092 70.127 163.092 69.6738L163.104 65.9297C163.104 65.4844 163.205 65.082 163.408 64.7227C163.611 64.3594 163.891 64.0684 164.246 63.8496C164.605 63.627 165.004 63.5156 165.441 63.5156C165.887 63.5156 166.283 63.623 166.631 63.8379C166.982 64.0527 167.262 64.3438 167.469 64.7109C167.68 65.0742 167.785 65.4805 167.785 65.9297V66.4805C167.785 66.5117 167.77 66.5273 167.738 66.5273H166.391C166.359 66.5273 166.344 66.5117 166.344 66.4805V65.9297C166.344 65.6641 166.258 65.4355 166.086 65.2441C165.914 65.0527 165.699 64.957 165.441 64.957C165.156 64.957 164.938 65.0547 164.785 65.25C164.633 65.4453 164.557 65.6719 164.557 65.9297V69.6738C164.557 69.9668 164.643 70.207 164.814 70.3945C164.986 70.5781 165.195 70.6699 165.441 70.6699C165.699 70.6699 165.914 70.5684 166.086 70.3652C166.258 70.1582 166.344 69.9277 166.344 69.6738V69.1172C166.344 69.0859 166.359 69.0703 166.391 69.0703H167.75C167.781 69.0703 167.797 69.0859 167.797 69.1172V69.6738C167.797 70.123 167.691 70.5332 167.48 70.9043C167.266 71.2715 166.982 71.5664 166.631 71.7891C166.279 72.0078 165.883 72.1172 165.441 72.1172ZM171.23 72H169.877C169.842 72 169.824 71.9805 169.824 71.9414V65.0977H168.266C168.227 65.0977 168.207 65.0781 168.207 65.0391L168.219 63.6973C168.219 63.666 168.234 63.6504 168.266 63.6504H172.824C172.867 63.6504 172.889 63.666 172.889 63.6973V65.0391C172.889 65.0781 172.873 65.0977 172.842 65.0977H171.266L171.277 71.9414C171.277 71.9805 171.262 72 171.23 72Z" fill="#094067"/>
</svg>
